<svg xmlns="http://www.w3.org/2000/svg" width="200.314" height="64.792" viewBox="0 0 200.314 64.792">
    <defs>
        <style>
            .cls-1{fill:#fff}
        </style>
    </defs>
    <g id="app-store-apple-f1f919205b" transform="translate(-1.357 -1.527)">
        <path id="Path_1279" d="M13.691 65.693h-1.527a20.78 20.78 0 0 1-3.223-.339 18.532 18.532 0 0 1-2.883-.848 12.04 12.04 0 0 1-2.375-1.7 7.646 7.646 0 0 1-1.7-2.375 8.134 8.134 0 0 1-.848-2.883 18.786 18.786 0 0 1-.335-3.22V12.095a20.782 20.782 0 0 1 .339-3.223 8.867 8.867 0 0 1 1.018-2.714 12.04 12.04 0 0 1 1.7-2.375 12.04 12.04 0 0 1 2.375-1.7 8.134 8.134 0 0 1 2.883-.848A18.787 18.787 0 0 1 12.334.9H189.75a23.177 23.177 0 0 1 3.223.339 18.533 18.533 0 0 1 2.883.848 9.436 9.436 0 0 1 4.071 4.071 8.377 8.377 0 0 1 .848 2.714 20.781 20.781 0 0 1 .339 3.223v42.233a23.176 23.176 0 0 1-.339 3.223 18.534 18.534 0 0 1-.848 2.883 12.04 12.04 0 0 1-1.7 2.375 7.645 7.645 0 0 1-2.375 1.7 5.718 5.718 0 0 1-2.883.848 18.787 18.787 0 0 1-3.223.339H13.691z" transform="translate(0.557 0.627)"/>
        <path id="Path_1280" d="M35.106 28.375a8.326 8.326 0 0 1 4.071-7.124 8.925 8.925 0 0 0-6.785-3.732c-2.883-.339-5.6 1.7-7.124 1.7s-3.732-1.7-6.106-1.7a9.218 9.218 0 0 0-7.633 4.58c-3.223 5.6-.848 14.078 2.375 18.658 1.527 2.2 3.392 4.749 5.767 4.749 2.375-.17 3.223-1.527 6.106-1.527s3.562 1.527 6.106 1.527 4.071-2.2 5.6-4.58a15.137 15.137 0 0 0 2.544-5.258 7.558 7.558 0 0 1-4.919-7.293zm-4.75-13.739A8.324 8.324 0 0 0 32.222 8.7a7.867 7.867 0 0 0-5.428 2.883 7.68 7.68 0 0 0-1.866 5.767 6.828 6.828 0 0 0 5.428-2.714zm34.432 25.273h-7.972l-1.866 5.767h-3.392l7.633-21.032h3.392l7.633 21.032h-3.393zm-7.124-2.544h6.446l-3.223-9.329h-.17l-3.053 9.329zm29 .678c0 4.749-2.544 7.8-6.445 7.8a4.928 4.928 0 0 1-4.749-2.714v7.633h-3.219V30.411H75.3v2.544a5.692 5.692 0 0 1 4.919-2.714c3.735-.17 6.449 3.053 6.449 7.802zm-3.392 0c0-3.053-1.527-5.088-4.071-5.088-2.375 0-4.071 2.035-4.071 5.088s1.7 5.088 4.071 5.088c2.548.001 4.075-2.031 4.075-5.088zm20.184 0c0 4.749-2.544 7.8-6.445 7.8a4.928 4.928 0 0 1-4.749-2.714v7.633h-3.219V30.411H92.1v2.544a5.692 5.692 0 0 1 4.919-2.714c3.897-.17 6.441 3.053 6.441 7.802zm-3.223 0c0-3.053-1.527-5.088-4.071-5.088-2.375 0-4.071 2.035-4.071 5.088s1.7 5.088 4.071 5.088c2.549.001 4.075-2.031 4.075-5.088zm14.417 1.7c.17 2.035 2.2 3.392 5.088 3.392 2.714 0 4.58-1.357 4.58-3.223 0-1.7-1.187-2.544-3.9-3.223l-2.714-.678c-3.9-.848-5.6-2.714-5.6-5.6 0-3.562 3.223-6.106 7.633-6.106s7.463 2.544 7.633 6.106h-3.223c-.17-2.035-1.866-3.392-4.41-3.392s-4.24 1.357-4.24 3.223c0 1.527 1.187 2.375 3.9 3.053l2.375.509c4.24 1.018 6.106 2.714 6.106 5.767 0 3.9-3.053 6.445-8.141 6.445-4.749 0-7.8-2.375-7.972-6.276h2.883zm19.675-13.06v3.562h2.883v2.544h-2.878v8.481c0 1.357.509 1.866 1.866 1.866h1.018v2.544a5.77 5.77 0 0 1-1.7.17c-3.053 0-4.24-1.187-4.24-4.071v-8.82h-2.2v-2.548h2.2v-3.562h3.053zm4.749 11.364c0-4.749 2.883-7.8 7.293-7.8s7.293 3.053 7.293 7.8c0 4.919-2.883 7.8-7.293 7.8-4.574-.001-7.288-3.055-7.288-7.804zm11.364 0c0-3.392-1.527-5.258-4.071-5.258s-4.071 1.866-4.071 5.258 1.527 5.258 4.071 5.258 4.071-2.035 4.071-5.258zm5.767-7.8h3.053v2.714a3.509 3.509 0 0 1 3.732-2.714 2.151 2.151 0 0 1 1.018.17V33.3a4.215 4.215 0 0 0-1.357-.17 3.189 3.189 0 0 0-3.223 3.053v9.668h-3.218v-15.6zM178.6 41.1c-.339 2.714-3.053 4.749-6.615 4.749-4.41 0-7.293-3.053-7.293-7.8s2.714-7.972 7.124-7.972c4.24 0 6.954 2.883 6.954 7.633v1.018h-10.857v.17a4.113 4.113 0 0 0 3.562 4.41h.509a3.328 3.328 0 0 0 3.562-2.2h3.054zm-10.686-4.58h7.633a3.763 3.763 0 0 0-3.562-3.9h-.339a3.8 3.8 0 0 0-3.733 3.897z" class="cls-1" transform="translate(6.959 6.056)"/>
        <g id="Group_465" transform="translate(60.383 14.248)">
            <path id="Path_1281" d="M39.332 8.909a4.4 4.4 0 0 1 4.749 4.071v.848c0 3.223-1.7 5.088-4.749 5.088H35.6V8.739l3.732.17zm-2.032 8.82h1.866a3.212 3.212 0 0 0 3.392-3.053V14a3.226 3.226 0 0 0-2.714-3.562H37.3v7.293zm8.65-2.544a3.578 3.578 0 0 1 7.124-.678v.678a3.578 3.578 0 0 1-7.124.678zm5.6 0q0-2.544-2.035-2.544c-1.357 0-2.035 1.018-2.035 2.544 0 1.7.678 2.714 2.035 2.714s2.029-1.018 2.029-2.714zm11.195 3.9h-1.533l-1.527-5.6h-.17l-1.527 5.6h-1.525l-2.035-7.633h1.527l1.357 5.767h.17l1.527-5.767h1.527l1.524 5.768h.17l1.357-5.767h1.527l-2.375 7.633zm3.9-7.633h1.527v1.188h.17a2.445 2.445 0 0 1 2.2-1.357 2.489 2.489 0 0 1 2.714 2.375v5.428h-1.528v-4.58c0-1.187-.509-1.866-1.7-1.866a1.743 1.743 0 0 0-1.866 1.7v4.749h-1.523zM75.459 8.4h1.527v10.686h-1.527zm3.562 6.785a3.578 3.578 0 0 1 7.124-.678v.678a3.578 3.578 0 1 1-7.124.678zm5.767 0q0-2.544-2.035-2.544c-1.357 0-2.035 1.018-2.035 2.544 0 1.7.678 2.714 2.035 2.714 1.187.001 2.035-1.018 2.035-2.714zm3.053 1.7c0-1.357 1.018-2.2 2.883-2.2l2.035-.17v-.678c0-.848-.509-1.187-1.527-1.187-.848 0-1.357.339-1.527.848H88.18c.17-1.357 1.357-2.2 3.053-2.2 1.866 0 3.053 1.018 3.053 2.544V19.1H92.76v-1.032h-.17a2.567 2.567 0 0 1-2.375 1.187 2.4 2.4 0 0 1-2.544-2.035c.17-.17.17-.17.17-.339zm4.919-.685v-.678l-1.866.17c-1.018 0-1.527.509-1.527 1.018 0 .678.678 1.018 1.357 1.018 1.018.339 1.866-.339 2.035-1.527zm3.392-1.018c0-2.375 1.187-3.9 3.223-3.9a2.707 2.707 0 0 1 2.375 1.357h.17V8.4h1.527v10.686h-1.527V17.9h-.17a2.707 2.707 0 0 1-2.375 1.357c-1.866-.002-3.223-1.528-3.223-4.072zm1.7 0q0 2.544 2.035 2.544c1.357 0 2.035-1.018 2.035-2.544s-.848-2.544-2.035-2.544c-1.36.002-2.039 1.02-2.039 2.547zm11.7 0a3.578 3.578 0 0 1 7.124-.678v.678a3.578 3.578 0 0 1-7.124.678zm5.767 0q0-2.544-2.035-2.544c-1.357 0-2.035 1.018-2.035 2.544 0 1.7.678 2.714 2.035 2.714 1.187.004 2.035-1.015 2.035-2.711zm3.562-3.732h1.527v1.19h.17a2.445 2.445 0 0 1 2.2-1.357 2.489 2.489 0 0 1 2.714 2.375v5.428h-1.527v-4.58c0-1.187-.509-1.866-1.7-1.866a1.743 1.743 0 0 0-1.866 1.7v4.749h-1.527zm14.926-1.866v1.866h1.7v1.36h-1.7v3.9c0 .848.339 1.187 1.018 1.187h.509v1.187h-.848c-1.7 0-2.375-.509-2.375-2.035V12.81h-1.187v-1.187h1.187V9.587h1.7zm3.731-1.184h1.527v4.24h.17a2.271 2.271 0 0 1 2.375-1.357 2.742 2.742 0 0 1 2.714 2.375v5.428H142.8v-4.58c0-1.187-.509-1.866-1.7-1.866a1.743 1.743 0 0 0-1.866 1.7v4.749h-1.527V8.4zm15.435 8.65a3.114 3.114 0 0 1-3.223 2.2 3.552 3.552 0 0 1-3.562-3.392v-.509a3.352 3.352 0 0 1 3.053-3.9h.509c2.2 0 3.392 1.527 3.392 3.9v.509h-5.428v.17a1.959 1.959 0 0 0 1.866 2.2h.17a1.989 1.989 0 0 0 1.866-.848h1.357zm-5.428-2.544h3.9a2.015 2.015 0 0 0-1.7-2.035h-.17a2.339 2.339 0 0 0-2.035 2.035z" class="cls-1" transform="translate(-35.6 -8.4)"/>
        </g>
    </g>
</svg>
