<svg xmlns="http://www.w3.org/2000/svg" width="228.979" height="67.846" viewBox="0 0 228.979 67.846">
    <defs>
        <linearGradient id="kzuirkyf1a" x1=".907" x2="-.384" y1="-6.392" y2="-5.721" gradientUnits="objectBoundingBox">
            <stop offset="0" stop-color="#00a0ff"/>
            <stop offset=".007" stop-color="#00a1ff"/>
            <stop offset=".26" stop-color="#00beff"/>
            <stop offset=".512" stop-color="#00d2ff"/>
            <stop offset=".76" stop-color="#00dfff"/>
            <stop offset="1" stop-color="#00e3ff"/>
        </linearGradient>
        <linearGradient id="3gz5v4giyb" x1="1.077" x2="-1.307" y1="-18.441" y2="-18.441" gradientUnits="objectBoundingBox">
            <stop offset="0" stop-color="#ffe000"/>
            <stop offset=".409" stop-color="#ffbd00"/>
            <stop offset=".775" stop-color="orange"/>
            <stop offset="1" stop-color="#ff9c00"/>
        </linearGradient>
        <linearGradient id="qe67qiubac" x1=".863" x2="-.5" y1="-12.314" y2="-10.549" gradientUnits="objectBoundingBox">
            <stop offset="0" stop-color="#ff3a44"/>
            <stop offset="1" stop-color="#c31162"/>
        </linearGradient>
        <linearGradient id="8opumsdftd" x1="-.188" x2=".421" y1="-13.092" y2="-12.3" gradientUnits="objectBoundingBox">
            <stop offset="0" stop-color="#32a071"/>
            <stop offset=".069" stop-color="#2da771"/>
            <stop offset=".476" stop-color="#15cf74"/>
            <stop offset=".801" stop-color="#06e775"/>
            <stop offset="1" stop-color="#00f076"/>
        </linearGradient>
    </defs>
    <path d="M220.5 67.846H8.481A8.4 8.4 0 0 1 0 59.365V8.481A8.4 8.4 0 0 1 8.481 0H220.5a8.4 8.4 0 0 1 8.481 8.481v50.884a8.4 8.4 0 0 1-8.481 8.481z"/>
    <path fill="#fff" stroke="#fff" stroke-miterlimit="10" stroke-width="0.2px" d="M51.577 12.5a4.62 4.62 0 0 1-1.187 3.39 5.324 5.324 0 0 1-7.463 0 4.987 4.987 0 0 1-1.527-3.732 4.987 4.987 0 0 1 1.527-3.732A4.987 4.987 0 0 1 46.658 6.9a4.516 4.516 0 0 1 2.035.509A3.694 3.694 0 0 1 50.22 8.6l-.848.848a3.163 3.163 0 0 0-2.714-1.187 3.375 3.375 0 0 0-2.714 1.187 3.494 3.494 0 0 0-1.187 2.883 3.494 3.494 0 0 0 1.187 2.883 4.367 4.367 0 0 0 2.714 1.186 3.72 3.72 0 0 0 2.883-1.187 2.809 2.809 0 0 0 .848-2.035h-3.731v-1.359h4.919v.681zm7.8-4.24H54.8v3.22h4.24v1.187H54.8v3.223h4.58v1.357h-5.937V7.07h5.936zm5.6 8.99h-1.358V8.257h-2.883V7.07h7.124v1.187h-2.884zm7.8 0V7.07h1.357v10.176zm7.124 0h-1.355V8.257h-2.884V7.07h6.954v1.187h-2.883zm16.115-1.36a5.324 5.324 0 0 1-7.463 0 4.987 4.987 0 0 1-1.527-3.732 4.987 4.987 0 0 1 1.527-3.732 5.324 5.324 0 0 1 7.463 0 4.987 4.987 0 0 1 1.527 3.732 4.987 4.987 0 0 1-1.527 3.732zm-6.445-.848a4 4 0 0 0 2.714 1.187A3.375 3.375 0 0 0 95 15.041a4.092 4.092 0 0 0 1.187-2.883A3.494 3.494 0 0 0 95 9.275a4 4 0 0 0-2.714-1.187 3.375 3.375 0 0 0-2.716 1.187 4.092 4.092 0 0 0-1.187 2.883 3.494 3.494 0 0 0 1.187 2.883zm9.838 2.2V7.07h1.527l4.919 7.972V7.07h1.357v10.176h-1.357L100.6 8.935v8.311h-1.192z" transform="translate(28.82 4.803)"/>
    <path fill="#fff" d="M86.9 25.072a7.136 7.136 0 0 0-7.3 7.293 7.239 7.239 0 0 0 7.3 7.294 7.136 7.136 0 0 0 7.293-7.293 7.037 7.037 0 0 0-7.293-7.294zm0 11.534a4.21 4.21 0 0 1-4.071-4.41 4.21 4.21 0 0 1 4.071-4.41 4.109 4.109 0 0 1 4.071 4.41 4.21 4.21 0 0 1-4.071 4.41zM71.122 25.072a7.136 7.136 0 0 0-7.293 7.293 7.239 7.239 0 0 0 7.293 7.293 7.136 7.136 0 0 0 7.293-7.293 7.037 7.037 0 0 0-7.293-7.293zm0 11.534a4.21 4.21 0 0 1-4.071-4.41 4.21 4.21 0 0 1 4.071-4.41 4.109 4.109 0 0 1 4.071 4.41 4.21 4.21 0 0 1-4.071 4.41zm-18.827-9.329v3.053h7.293a6.414 6.414 0 0 1-1.7 3.9 7.507 7.507 0 0 1-5.6 2.2 7.9 7.9 0 0 1-7.972-8.141 8 8 0 0 1 7.972-8.141 8.41 8.41 0 0 1 5.6 2.2l2.2-2.2a10.869 10.869 0 0 0-7.624-3.048A11.442 11.442 0 0 0 41.1 28.295a11.442 11.442 0 0 0 11.364 11.194 9.761 9.761 0 0 0 7.8-3.223 10.211 10.211 0 0 0 2.714-7.124 6.36 6.36 0 0 0-.17-1.866H52.295zm77 2.375c-.678-1.7-2.375-4.58-6.106-4.58s-6.785 2.883-6.785 7.293a7.1 7.1 0 0 0 7.124 7.293 6.958 6.958 0 0 0 5.936-3.223l-2.375-1.7a4.134 4.134 0 0 1-3.562 2.035 3.68 3.68 0 0 1-3.562-2.2l9.668-4.071-.339-.848zm-9.838 2.375a4.12 4.12 0 0 1 3.732-4.24 3 3 0 0 1 2.714 1.527l-6.445 2.714zm-7.967 6.953h3.223v-21.2h-3.223zM106.4 26.6a5.585 5.585 0 0 0-3.9-1.7 7.288 7.288 0 0 0-6.954 7.3 7.023 7.023 0 0 0 6.954 7.124 4.87 4.87 0 0 0 3.732-1.7h.17v1.018c0 2.714-1.527 4.24-3.9 4.24a3.768 3.768 0 0 1-3.562-2.544l-2.714 1.187a7 7 0 0 0 6.445 4.24c3.732 0 6.785-2.2 6.785-7.463V25.411H106.4V26.6zm-3.73 10.006A4.21 4.21 0 0 1 98.6 32.2a4.21 4.21 0 0 1 4.071-4.41c2.2 0 3.9 1.866 3.9 4.41s-1.696 4.406-3.901 4.406zm41.386-18.827h-7.633v21.2h3.223v-7.971h4.41a6.623 6.623 0 1 0 0-13.23zm.17 10.177h-4.58v-7.294h4.58a3.726 3.726 0 0 1 3.732 3.562 3.882 3.882 0 0 1-3.733 3.731zm19.505-3.056c-2.375 0-4.749 1.018-5.6 3.223l2.883 1.187a3 3 0 0 1 2.883-1.527 3.188 3.188 0 0 1 3.392 2.714v.17a6.728 6.728 0 0 0-3.223-.848c-3.053 0-6.106 1.7-6.106 4.749 0 2.883 2.544 4.749 5.258 4.749a4.773 4.773 0 0 0 4.071-2.035h.17v1.7h3.053v-8.143c-.339-3.732-3.223-5.936-6.785-5.936zm-.339 11.7c-1.018 0-2.544-.509-2.544-1.866 0-1.7 1.866-2.2 3.392-2.2a6.559 6.559 0 0 1 2.883.678 3.95 3.95 0 0 1-3.731 3.394zM181.2 25.411l-3.562 9.159h-.17l-3.732-9.159h-3.392l5.6 12.891-3.223 7.124h3.223l8.65-20.014zM152.7 38.98h3.223v-21.2H152.7z" transform="translate(28.611 11.904)"/>
    <path fill="url(#kzuirkyf1a)" d="M10.678 7.5A3.316 3.316 0 0 0 10 9.875v37.484a3.355 3.355 0 0 0 .848 2.375l.17.17L32.05 28.871v-.339z" transform="translate(6.961 5.221)"/>
    <path fill="url(#3gz5v4giyb)" d="M29.854 30.217L22.9 23.263v-.509l6.954-6.954.17.17 8.311 4.749c2.375 1.357 2.375 3.562 0 4.919z" transform="translate(15.942 10.999)"/>
    <path fill="url(#qe67qiubac)" d="M38.726 27.124L31.6 20 10.4 41.2c.848.848 2.035.848 3.562.17l24.764-14.246" transform="translate(7.24 13.923)"/>
    <path fill="url(#8opumsdftd)" d="M38.726 21.807L13.962 7.729c-1.527-.848-2.714-.678-3.562.17l21.2 21.032 7.124-7.124z" transform="translate(7.24 4.992)"/>
    <path d="M38.556 24.1L13.962 38.008a2.774 2.774 0 0 1-3.392 0l-.17.17.17.17a2.774 2.774 0 0 0 3.392 0z" opacity="0.2" transform="translate(7.24 16.777)"/>
    <path d="M10.678 40.863A3.316 3.316 0 0 1 10 38.488v.17a3.355 3.355 0 0 0 .848 2.375v-.17zM47.315 22.2l-8.481 4.749.17.17 8.311-4.749A2.82 2.82 0 0 0 49.011 20c0 .848-.678 1.527-1.696 2.2z" opacity="0.12" transform="translate(6.961 13.923)"/>
    <path fill="#fff" d="M14.24 7.892l33.075 18.827c1.018.678 1.7 1.357 1.7 2.2a2.82 2.82 0 0 0-1.7-2.375L14.24 7.892C11.866 6.366 10 7.383 10 10.1v.17c0-2.547 1.866-3.735 4.24-2.378z" opacity="0.25" transform="translate(6.961 4.999)"/>
</svg>
