<svg xmlns="http://www.w3.org/2000/svg" width="33.084" height="33.084" viewBox="0 0 33.084 33.084">
    <defs>
        <style>
            .cls-8{fill:#eebc31}
        </style>
    </defs>
    <g id="egypt_1_" transform="translate(0 0)">
        <circle id="Ellipse_15" cx="16.542" cy="16.542" r="16.542" fill="#fff" transform="translate(0.001 0.001)"/>
        <path id="Path_640" fill="#efecec" d="M324.412 157.875H314.22a45.734 45.734 0 0 1 .009 10.965h10.205a16.558 16.558 0 0 0-.022-10.965z" transform="translate(-292.273 -146.848)"/>
        <path id="Path_641" fill="#c42b27" d="M262.034 11.931h10.192a.137.137 0 0 0-.005-.014A16.552 16.552 0 0 0 258.115.972c2.532 1.388 3.271 5.785 3.919 10.959z" transform="translate(-240.087 -0.904)"/>
        <path id="Path_642" fill="#0b0b0b" d="M258.115 325.895a16.553 16.553 0 0 0 14.117-10.977l.016-.047h-10.205c-.643 5.201-1.386 9.629-3.928 11.024z" transform="translate(-240.087 -292.879)"/>
        <path id="Path_643" fill="#efefef" d="M0 163.391a16.519 16.519 0 0 0 .923 5.45h21.884a45.741 45.741 0 0 0-.008-10.965H.945A16.508 16.508 0 0 0 0 163.391z" transform="translate(0 -146.848)"/>
        <path id="Path_644" fill="#cc3434" d="M13.538 11.012l-.005.014h21.854c-.648-5.173-2.239-9.57-4.771-10.958C30.126.025 29.631 0 29.13 0a16.545 16.545 0 0 0-15.592 11.012z" transform="translate(-12.588 0)"/>
        <path id="Path_645" fill="#151515" d="M35.1 314.871H13.219l.016.047a16.547 16.547 0 0 0 15.6 11.045c.5 0 1-.025 1.486-.068 2.545-1.395 4.139-5.823 4.779-11.024z" transform="translate(-12.296 -292.879)"/>
        <g id="Group_38" transform="translate(13.267 12.729)">
            <path id="Path_646" d="M196.456 189.9a4.474 4.474 0 0 0-.736-.024c-.045.027-.04.1-.06.157.024.049.072.022.121.06.076.072.127.17.241.205-.1.1-.1.307-.241.362.025.237-.13.279-.362.325a14.181 14.181 0 0 1-4.03.084 2.013 2.013 0 0 1-.688-.18.225.225 0 0 1-.06-.206c-.14-.07-.141-.277-.253-.374.156-.053.186-.232.362-.265a.541.541 0 0 0-.037-.169 4.84 4.84 0 0 0-.76.024c.019-.27.026-.576.049-.893.031-.423.026-.918.06-1.339.018-.215.011-.437.025-.651.025-.408.007-.813.036-1.195.031-.412.017-.853.048-1.242s.143-.727.615-.688c.559.047.91.515 1.52.519a1.591 1.591 0 0 0 .41-1.363c-.036-.235-.285-.575-.53-.446-.036-.4.341-.343.591-.217.076-.048.1-.114.181-.133a.908.908 0 0 1 .567.109.781.781 0 0 1 .278.7c0 .169-.038.337-.025.506a1.52 1.52 0 0 0 .3.833c.566.052.983-.452 1.532-.507a.555.555 0 0 1 .531.217 10.542 10.542 0 0 1 .157 1.87c.03.39.012.8.036 1.195.056.901.083 1.804.122 2.726zm-2.715-6.31a3.519 3.519 0 0 0-.048-.977c-.054-.051-.085-.125-.157-.157h-.18c-.09.049-.124.149-.217.169-.223.048-.241-.164-.41-.229-.044-.017-.1-.008-.157-.025-.162-.049-.258-.107-.338.121.3-.017.559.078.627.326-.169-.047-.121.1-.109.2a1.793 1.793 0 0 1-.217 1.171c-.08.13-.183.232-.241.35.176-.033.334-.022.422-.133.118-.147.093-.463.169-.639a1.3 1.3 0 0 1-.289.856c.43-.061.5-.419.543-.856a1.139 1.139 0 0 1-.1.6c.056.07.087.163.169.206a.589.589 0 0 0 .157-.217.918.918 0 0 1-.072-.591c-.006.464.121.8.519.856a1.2 1.2 0 0 1-.266-.869 1.951 1.951 0 0 0 .157.664.858.858 0 0 0 .423.121 1.678 1.678 0 0 1-.385-.945zm-.76-1.1v.048c.029 0 .026.022.06.012a.074.074 0 0 0 .012-.06.059.059 0 0 0-.071.004zm-2.329 1.435a.461.461 0 0 0-.41.507c.117-.04.228-.149.35-.145-.065 1.816-.145 3.467-.217 5.261a1.43 1.43 0 0 0-.314.3h.651c.034-.288.358-.347.627-.266.128-.443.258-.884.375-1.339-.12.073-.181.205-.3.278.043-1.161.1-2.291.145-3.475a1.061 1.061 0 0 0 .784.109 2.408 2.408 0 0 0 .88-.386 1.969 1.969 0 0 0 1.086.41 1.312 1.312 0 0 0 .555-.109c.025 1.183.11 2.34.133 3.463a3.383 3.383 0 0 0-.289-.278c.107.457.245.881.362 1.327.281-.089.591-.012.64.266.213-.008.458.016.651-.012-.076-.135-.263-.173-.313-.314a2.442 2.442 0 0 1-.024-.6c-.066-1.459-.159-3.182-.193-4.644a3.674 3.674 0 0 1 .35.157c-.027-.291-.148-.489-.422-.507-.625-.042-.985.533-1.617.519 0 .077.123.094.109.145a1.833 1.833 0 0 1-.422-.06c-.012.067.11.1.12.18a1.077 1.077 0 0 1-.567-.277 1.118 1.118 0 0 1-.181.229 1.434 1.434 0 0 0-.181-.229.787.787 0 0 1-.554.265c.035-.061.108-.085.12-.169a1.094 1.094 0 0 1-.422.049c.037-.044.1-.06.109-.133-.602.019-1.02-.563-1.62-.517zm1.17 1.3a3.091 3.091 0 0 0 1.4 2.787 3.147 3.147 0 0 0 1.364-2.787 2.487 2.487 0 0 1-.989-.181c-.148-.064-.291-.181-.41-.217a2.142 2.142 0 0 1-1.364.406zm.024.88c-.011.586-.1 1.3-.06 1.906a4.1 4.1 0 0 0 .109-1.17 1.588 1.588 0 0 0-.036-.772.057.057 0 0 1-.012.045zm2.679 1.086a1.927 1.927 0 0 0 .12.832c.012-.642-.068-1.309-.072-1.943-.016 0-.017-.015-.036-.012a4.961 4.961 0 0 0-.011 1.132zm-2.486.688c.1-.117.22-.223.314-.351a.933.933 0 0 0-.217-.615c-.036.319-.336.719-.096.975zm2.027-.338c.113.1.21.288.338.338.18-.293-.08-.608-.108-.941-.016 0-.017-.016-.037-.012a.96.96 0 0 0-.192.623zm-1.617.543a3.342 3.342 0 0 0 .3-.386c-.15-.119-.259-.279-.4-.411.036.276.051.555.102.806zm1.219-.375a2.039 2.039 0 0 0 .314.375c.025-.261.044-.527.084-.772 0-.015 0-.029-.024-.025a4.133 4.133 0 0 1-.373.431zm-1.668.251c-.015-.078-.056-.129-.072-.2a1.656 1.656 0 0 0-.169.531c-.019.067-.066.122-.06.193.138-.059.195-.2.338-.254a2.992 2.992 0 0 0 .12.314c.112-.054.107-.223.206-.29.055.194.112.387.18.567.129-.109.275-.2.314-.4-.072-.165-.139-.336-.205-.506-.1.067-.16.234-.241.278a1.865 1.865 0 0 0-.085-.579 2.225 2.225 0 0 1-.326.346zm2 .241c-.088-.089-.148-.205-.241-.289-.035.079-.076.157-.109.241a1.042 1.042 0 0 0-.1.265c-.009.189.2.278.314.4a3.461 3.461 0 0 1 .157-.567c.075.094.109.23.217.29.056-.1.094-.219.145-.326a3.219 3.219 0 0 0 .314.266 4.235 4.235 0 0 0-.217-.736.95.95 0 0 1-.1.217 3.236 3.236 0 0 0-.326-.338 3.838 3.838 0 0 0-.047.576zm-1.231-.458c-.2.139.021.422.1.58.034-.139.066-.28.1-.423-.069-.051-.13-.1-.193-.157zm.676.169a1.449 1.449 0 0 0 .109.411c.067-.142.117-.3.18-.447-.034-.05-.056-.113-.12-.133-.022.083-.128.09-.162.168zm-1.46.362a1.232 1.232 0 0 1-.314.266c-.084.243.09.45.169.639.11-.08.157-.222.266-.3a1.825 1.825 0 0 0 .145.41c.118-.083.186-.279.3-.325a.91.91 0 0 0 .1.374c.043-.231.1-.449.144-.676-.1.02-.168.169-.265.23-.067-.174-.11-.372-.18-.543-.095.066-.108.214-.193.29a1.124 1.124 0 0 0-.165-.366zm2.244.362c-.069-.1-.11-.227-.217-.29-.043.182-.093.358-.132.543-.1-.058-.168-.21-.266-.23a3.136 3.136 0 0 0 .169.688 2.22 2.22 0 0 1 .085-.4c.109.1.165.261.3.338.038-.143.089-.272.133-.41.1.087.15.227.266.3.067-.194.237-.375.169-.627-.125-.08-.219-.191-.338-.278-.063.11-.089.261-.162.365zm-1.315.953c-.062.035-.106.088-.169.121-.026-.03-.1-.129-.12-.085s-.019.11-.036.157c.115.011.343-.034.4.072.163-.022.295.031.422 0 .048-.012.085-.063.133-.072.09-.018.177.016.266 0-.017-.053 0-.133-.037-.169-.079 0-.065.087-.144.084-.041-.055-.116-.078-.157-.133-.046-.336-.075-.689-.144-1-.027.333.049.666.036 1.025-.065.056-.1.145-.169.193-.027-.081-.137-.122-.157-.229-.053-.295.11-.752.037-.99-.065.326-.075.706-.153 1.025zm-1.545.012a.3.3 0 0 0 .205.048 1.949 1.949 0 0 1 .229-.289 2.8 2.8 0 0 0 .145.374h.084c.065-.079.1-.188.169-.265.042.094.063.211.108.3a.822.822 0 0 0 .217.012.935.935 0 0 0-.012-.748c-.111.1-.176.242-.29.338a1.217 1.217 0 0 0-.157-.41c-.084.1-.16.2-.241.3-.086-.152-.11-.365-.23-.483-.055.287-.137.555-.219.822zm3.2-.338a1.387 1.387 0 0 0-.254-.3c-.071.118-.082.3-.157.41-.093-.1-.177-.281-.289-.326a.952.952 0 0 0 .012.736.728.728 0 0 0 .205-.012c.056-.085.065-.216.12-.3.051.09.106.176.157.265h.1a3.829 3.829 0 0 1 .157-.386 1.769 1.769 0 0 0 .229.314c.067-.017.153-.016.181-.072-.082-.26-.15-.534-.229-.8h-.036c-.055.164-.122.318-.191.471zm-2.956.41a2.477 2.477 0 0 0 .29.048.676.676 0 0 0-.133-.289c-.036.092-.121.14-.152.241zm2.9.048a2.256 2.256 0 0 0 .278-.048c-.009-.073-.1-.161-.157-.229-.075.056-.091.174-.12.277zm-2.425.025c.04.025.123.006.181.012-.023-.07-.019-.166-.084-.193a.607.607 0 0 0-.096.181zm2.063.012h.169a.226.226 0 0 0-.121-.193c.001.071-.064.135-.047.193zm1.17-.17a9.085 9.085 0 0 1-1 .206 5.01 5.01 0 0 1-.772.024c-.071.077-.034.164.012.241a2.8 2.8 0 0 0 .76-.012c-.013-.256.291-.319.326-.048a3.216 3.216 0 0 0 .76-.193c.002-.106.001-.206-.085-.218zm-3.451.181c-.207-.03-.486-.127-.676-.169-.108-.024-.14 0-.181.048v.169a3.974 3.974 0 0 0 .76.181c.023-.272.329-.221.313.048a2.828 2.828 0 0 0 .761.012c.054-.085.089-.147.024-.241a5.567 5.567 0 0 1-.999-.047zm-1.1.145a.5.5 0 0 0 .205-.109c-.006-.059.012-.141-.012-.181a.225.225 0 0 0-.189.29zm4.669-.1a.568.568 0 0 0 .205.1.235.235 0 0 0-.193-.29c-.021.044-.003.131-.008.194zm-3.511.326a.5.5 0 0 1 .1-.072.268.268 0 0 0-.048-.217c-.212-.026-.204.269-.048.292zm2.449-.084c.017.042.073.051.12.084.049-.027.073-.08.109-.12-.006-.262-.306-.153-.225.039zm-2.63-.024c-.321-.011-.645-.236-.929-.1-.009.059-.052.084-.036.169-.136-.014-.293.167-.3.23-.019.137.118.237.193.326a.3.3 0 0 0 .036.192 10.828 10.828 0 0 0 3.969.206c.37-.041.961-.079 1.062-.29v-.145c.134-.035.155-.182.193-.314-.107-.07-.143-.21-.314-.217.034-.049-.024-.093-.024-.145-.15-.128-.33-.034-.543.012-.292.064-.484.064-.556.278-.03-.074-.1-.107-.157-.157a2.506 2.506 0 0 1-.772.012c-.063.1-.2.121-.217.265a.6.6 0 0 1-.085-.29h-.12a.653.653 0 0 1-.1.29c-.01-.147-.153-.16-.2-.265a3.366 3.366 0 0 1-.773 0c-.083.026-.118.1-.18.145-.008-.101-.094-.134-.143-.199zm1.315-.145a.512.512 0 0 0 .085.146c.147.03.16-.073.205-.146a.723.723 0 0 0-.286.003zm-.169.206a.458.458 0 0 0 .181.133c.047-.125.014-.311-.121-.326.015.1-.066.1-.053.2zm.519-.193c-.075.054-.169.255-.049.326.046-.059.128-.081.157-.157-.046-.04-.035-.144-.104-.169z" class="cls-8" transform="translate(-189.953 -182.241)"/>
            <path id="Path_647" d="M197.45 217.339a3.554 3.554 0 0 1-.41.349c.057-1.647.162-3.339.217-5.043a1.667 1.667 0 0 1 .374.314c-.052 1.474-.12 2.824-.181 4.38z" class="cls-8" transform="translate(-196.545 -210.522)"/>
            <path id="Path_648" d="M267.982 217.523c-.069.013-.136-.1-.205-.157a1.04 1.04 0 0 1-.217-.193c-.076-1.243-.058-2.554-.157-3.74a3.145 3.145 0 0 1-.024-.616c.038-.147.287-.2.362-.337.091 1.513.159 3.412.241 5.043z" class="cls-8" transform="translate(-261.961 -210.368)"/>
            <path id="Path_649" d="M204.643 218.352a2.45 2.45 0 0 1 .3.241c-.029.97-.09 2.131-.133 3.1a1.987 1.987 0 0 1-.012.495c-.051.14-.248.216-.338.338.055-1.405.14-2.797.183-4.174z" class="cls-8" transform="translate(-203.449 -215.83)"/>
            <path id="Path_650" d="M262.287 222.65c-.016.017-.049-.026-.072-.049-.071-.071-.171-.179-.241-.253-.061-1.18-.108-2.411-.157-3.583a1.291 1.291 0 0 1 .278-.254c.07 1.27.132 2.777.192 4.139z" class="cls-8" transform="translate(-256.798 -215.978)"/>
            <path id="Path_651" d="M220.346 220.966a3.092 3.092 0 0 1-1.267 2.642 3.23 3.23 0 0 1-1.315-2.642 2.269 2.269 0 0 0 1.315-.374 2.082 2.082 0 0 0 1.267.374zm-1.7-.085c-.021.494-.012 1.159-.012 1.7a2.742 2.742 0 0 0 0 .579c.021.078.141.149.205.205a1.378 1.378 0 0 0 .229.181c.118-.092.405-.234.447-.386a2.728 2.728 0 0 0 0-.567v-1.714c-.157-.077-.3-.163-.459-.241-.111.109-.292.145-.411.243z" class="cls-8" transform="translate(-215.822 -217.913)"/>
            <path id="Path_652" d="M206.542 288.477c.076.025.195.006.205.1-.064.024-.115-.059-.205-.049z" class="cls-8" transform="translate(-205.383 -281.057)"/>
            <path id="Path_653" d="M263.921 288.612a.809.809 0 0 1-.2.084c-.007-.084.156-.125.2-.084z" class="cls-8" transform="translate(-258.564 -281.167)"/>
            <path id="Path_654" d="M211.725 290.208a.413.413 0 0 1 .253.084c-.078.008-.237-.016-.253-.084z" class="cls-8" transform="translate(-210.204 -282.667)"/>
            <path id="Path_655" d="M257.932 290.3a.4.4 0 0 1-.266.072.344.344 0 0 1 .266-.072z" class="cls-8" transform="translate(-252.937 -282.746)"/>
            <path id="Path_656" d="M248.43 291.845a.6.6 0 0 1-.266 0c.021-.082.236-.075.266 0z" class="cls-8" transform="translate(-244.098 -284.135)"/>
            <path id="Path_657" d="M221.514 291.882c-.023.089-.193.032-.29.048.008-.108.209-.048.29-.048z" class="cls-8" transform="translate(-219.04 -284.209)"/>
            <path id="Path_658" d="M227.169 292.246a.458.458 0 0 1-.254.036c.024-.065.185-.058.254-.036z" class="cls-8" transform="translate(-224.333 -284.548)"/>
            <path id="Path_659" d="M242.722 292.264a2.534 2.534 0 0 1-.254-.036c.045-.044.254-.047.254.036z" class="cls-8" transform="translate(-238.8 -284.517)"/>
            <path id="Path_660" d="M255.254 294.225c.055 0 .025-.088.084-.085-.009.037.012.044.012.072a.238.238 0 0 1-.217.024c-.095.05-.212.224-.338.1-.087.014-.074.127-.145.157-.1-.076-.179-.039-.326-.025-.043.049-.047.138-.133.145.005-.055.071-.049.072-.108-.013-.039-.082-.023-.109-.049-.023-.1.055-.1.085-.145.055.013.06.077.072.133a.277.277 0 0 0 .109-.025.285.285 0 0 1 .084-.157c0-.067-.043-.158-.036-.193.069.016.036.134.072.181.093-.008.148.021.169.084.094-.036.122-.145.241-.144.053 0 .081.046.133.036.014-.16-.027-.489-.229-.362.009-.063.1-.047.169-.048.127.084.006.42.231.409zm-.423.1c.056.05.2.023.181-.072-.034-.065-.205-.039-.181.068zm-.241.06a.44.44 0 0 0 .084-.024c0-.141-.193-.073-.084.02zm-.109.036c.03 0 .037-.019.06-.025 0-.039.005-.085-.036-.084-.022.018-.056.067-.024.106zm-.29.025c.037.017.055.005.085-.012 0-.028-.021-.036-.012-.072-.05-.002-.082.018-.073.08zm.41 0a.052.052 0 0 0 .085-.049c-.037.003-.086.003-.086.045z" class="cls-8" transform="translate(-249.667 -286.02)"/>
            <path id="Path_661" d="M205.786 294.442v.06c-.017.019-.062.011-.1.012-.01-.043 0-.03-.012-.072a.085.085 0 0 1 .112 0z" class="cls-8" transform="translate(-204.58 -286.587)"/>
            <path id="Path_662" d="M205.435 296.588c0 .021-.015.026-.012.048-.049 0-.094 0-.1-.048a.115.115 0 0 1 .112 0z" class="cls-8" transform="translate(-204.252 -288.589)"/>
            <path id="Path_663" d="M242.983 298.155h.048a.094.094 0 0 1 0 .1h-.048a.094.094 0 0 1 0-.1z" class="cls-8" transform="translate(-239.267 -290.059)"/>
            <path id="Path_664" d="M215.16 298.5c.037.157.064.5-.072.519s-.1-.184-.229-.193a.357.357 0 0 1-.265.025c-.06 0-.05.078-.109.085.078-.08.045-.182.036-.278.065.008.074.071.072.145.035.073.18.024.229 0-.026-.051-.059-.095-.085-.145.074-.019.074-.088.145-.084a.126.126 0 0 1 .024.241c.079.03.089.129.157.169.16-.041.043-.349.097-.484zm-.361.193c0 .046.04.072.084.1.203-.099-.077-.299-.083-.105z" class="cls-8" transform="translate(-212.771 -290.375)"/>
            <path id="Path_665" d="M225.9 298.5c.039.083-.014.273-.025.386a1 1 0 0 1 .025-.386z" class="cls-8" transform="translate(-223.356 -290.375)"/>
            <path id="Path_666" d="M243.969 298.5c.081.08-.014.336.084.4.083-.025.138-.013.157-.084s-.07-.1-.024-.145c.108.005.036.157.024.217a.824.824 0 0 1-.362.024c.007-.062.071-.065.121-.085.045-.111-.026-.248 0-.327z" class="cls-8" transform="translate(-240.084 -290.375)"/>
            <path id="Path_667" d="M243.129 300.223c.008.071-.146.03-.1-.012.021-.016.099-.024.1.012z" class="cls-8" transform="translate(-239.316 -291.959)"/>
            <path id="Path_668" d="M250.655 301.286a.658.658 0 0 1 .085-.157c-.034-.067-.166-.131-.073-.217.185.027.098.329-.012.374zm.012-.314c.006.047.025.08.073.085.029-.037-.026-.126-.073-.086z" class="cls-8" transform="translate(-246.396 -292.622)"/>
            <path id="Path_669" d="M268.5 301.313c0 .071-.086.047-.12.024.02-.067.084-.047.12-.024z" class="cls-8" transform="translate(-262.906 -292.976)"/>
            <path id="Path_670" d="M227.861 301.434a.537.537 0 0 0 .458.06c.035.034.032.106.061.145a.1.1 0 0 1 .072-.012c-.025-.143.175-.179.169-.024-.037.068-.145.064-.254.061-.049.027-.049.1-.1.132a.141.141 0 0 1-.109-.108 1.892 1.892 0 0 0-.386-.024c-.049.057-.1.176-.169.169.035-.062.1-.089.121-.169-.023-.046-.107-.082-.061-.157.116-.019.059.134.157.133.107-.04.028-.14.041-.206zm.036.205c.065 0 .176 0 .265.012.038.031.042.094.1.109.04-.053.108-.151.049-.229-.136.11-.427-.143-.411.108zm.6-.012c.063.011.086-.019.085-.072-.043-.062-.125.009-.082.072z" class="cls-8" transform="translate(-224.977 -293.109)"/>
            <path id="Path_671" d="M205.73 302.265c.038-.01.037.019.06.025a.2.2 0 0 1-.024.084c-.066-.01-.066-.074-.036-.109z" class="cls-8" transform="translate(-204.607 -293.88)"/>
            <path id="Path_672" d="M207.511 302.956c.051.084-.072.129-.109.06.005-.052.043-.07.109-.06z" class="cls-8" transform="translate(-206.183 -294.522)"/>
            <path id="Path_673" d="M210.094 303.465c-.012 0-.01.015-.012.025H210c-.06-.1.1-.135.094-.025z" class="cls-8" transform="translate(-208.585 -294.935)"/>
            <path id="Path_674" d="M245.074 305.406c.064 0 .057.1.012.121-.049-.007-.045-.1-.012-.121z" class="cls-8" transform="translate(-241.201 -296.803)"/>
            <path id="Path_675" d="M246.7 305.646c-.035-.013-.071-.026-.084-.06.04-.115.184-.012.084.06z" class="cls-8" transform="translate(-242.661 -296.923)"/>
            <path id="Path_676" d="M205.847 294.7h.036c0 .166-.248.451.036.47.047-.03.021-.132.084-.145.007.064-.025.088-.036.133.055.155.333.067.217-.108.135 0 .029.147.012.205a.277.277 0 0 1-.253-.049c-.134-.011-.253-.037-.265-.169.122-.049.147-.191.169-.337z" class="cls-8" transform="translate(-204.58 -286.844)"/>
        </g>
    </g>
</svg>
